<svg width="30" height="29" viewBox="0 0 30 29" fill="none" xmlns="http://www.w3.org/2000/svg">
<path d="M3.45996 9.25828C2.84334 8.70165 2.28433 8.14009 1.95456 7.3581C0.553371 4.02818 3.62423 0.745048 7.04324 1.87801C8.12815 2.2376 8.68961 3.06762 9.56122 3.71538C12.8074 6.12908 17.3849 6.10322 20.5697 3.59223C21.0307 3.22771 21.434 2.73758 21.901 2.40878C25.9587 -0.437174 31.1234 5.01582 26.5447 9.22503C20.0794 15.1694 9.95718 15.1214 3.45996 9.25951V9.25828Z" fill="#CD042C"/>
<path d="M10.6582 14.6953L12.1967 15.0303L12.2801 17.4625C12.4259 17.7051 13.6469 17.7506 13.9338 17.9513C14.1336 17.7531 13.8504 15.4872 14.0196 15.2729C14.1888 15.0586 14.7355 15.2569 14.9746 15.2532C15.2688 15.2495 15.6255 15.1251 15.9467 15.183C15.9737 15.1904 16.046 15.3849 16.046 15.4022V17.8922L17.7659 17.4994C17.9155 17.3097 17.7622 16.9748 17.7573 16.758C17.7439 16.1669 17.7892 15.5857 17.8481 14.9995L19.3522 14.6965V18.5351C19.1046 20.072 18.2403 21.2948 16.8551 21.9955C16.6675 22.0904 16.1723 22.1876 16.1195 22.3637L16.1024 27.5032C15.8425 28.6756 14.1692 28.6756 13.9093 27.5032L13.8921 22.3637C13.8394 22.1876 13.3441 22.0916 13.1566 21.9955C12.1452 21.4832 11.3619 20.6717 10.9487 19.6028C10.8936 19.4611 10.6607 18.7592 10.6607 18.6631V14.6978L10.6582 14.6953Z" fill="#CD042C"/>
<path d="M30.0009 3.25721L28.4783 3.80645C28.026 2.76708 27.2193 2.07499 26.2754 1.49989L26.816 0.0898438L26.9729 0.120631L30.0009 3.25721Z" fill="#CD042C"/>
<path d="M1.52818 3.74124C1.42643 3.77942 1.32836 3.74617 1.23028 3.7203C1.00227 3.66119 0.298607 3.38165 0.0840762 3.27205C0.0264593 3.24249 -0.0139951 3.28805 0.00807095 3.16737L3.18803 0L3.73478 1.50118C2.79575 2.00485 1.95479 2.74374 1.52695 3.74124H1.52818Z" fill="#CD042C"/>
</svg>
