<svg width="38" height="35" viewBox="0 0 38 35" fill="none" xmlns="http://www.w3.org/2000/svg">
<g clip-path="url(#clip0_4660_259)">
<path d="M13.6219 7.46236C13.5906 7.65102 13.4411 7.62407 13.322 7.71678C12.4137 8.41643 11.5231 9.3414 11.1699 10.4755C11.9538 9.65835 12.6948 8.91988 13.6826 8.35822C16.1723 6.94166 19.0863 6.63226 21.8165 7.46236C21.8395 7.56154 21.7841 7.56693 21.7297 7.61436C21.5834 7.74589 21.3398 7.858 21.1653 8.00138C20.3866 8.64282 19.6863 9.49556 19.3633 10.4755L20.5392 9.34679C23.5505 6.73252 28.2226 6.23769 31.6823 8.18681C34.1992 9.60445 35.7492 12.4559 34.1616 15.2664C32.9167 17.4699 30.8367 17.6931 28.578 17.6898C22.6819 17.6812 16.7701 17.6392 10.8835 17.6316C8.17008 17.6284 5.15357 18.1944 3.453 15.4442C1.78274 12.7437 3.08927 9.88043 5.53508 8.35498C7.91191 6.87159 10.9869 6.67754 13.6219 7.46236Z" fill="#CD042C"/>
<path d="M4.52232 25.7309C3.84607 25.0345 3.38826 24.0826 3.29942 23.0897C3.27224 22.7889 3.22625 22.487 3.58267 22.4267L13.1193 22.4353L18.5063 26.0295L18.7687 26.1287L25.5657 22.4353L34.3769 22.4213C34.9748 22.404 34.8191 22.9797 34.7522 23.4045C34.4438 25.3493 32.831 26.8381 30.9298 26.9976L7.28379 27.0008C6.20304 26.9221 5.28533 26.5157 4.52232 25.7309Z" fill="#CD042C"/>
<path d="M24.3541 20.14C23.9861 20.5206 23.474 21.2591 22.9367 21.3431C21.3616 21.5911 20.2526 19.0835 18.3472 19.2485C17.1974 19.3487 16.8065 20.8095 15.4613 20.955C13.6562 21.1502 13.4503 19.4124 11.9724 19.255C10.2708 19.0728 8.71548 20.9842 7.23231 20.7513C6.44317 20.6284 6.05853 19.4447 5.55264 18.9305C5.28402 18.6577 4.77604 18.3224 4.40499 18.2847C3.03053 18.1456 1.81285 20.1433 0.418524 18.5197C-0.794976 17.1064 0.885737 15.1767 2.21421 14.6711C2.7295 16.0359 3.65661 17.0827 4.91192 17.7619C6.16723 18.441 7.08075 18.3688 8.48344 18.386C14.2625 18.455 20.0331 18.3893 25.808 18.386C27.2368 18.385 28.6781 18.4723 30.0954 18.4367C32.2977 18.3817 34.2512 17.0158 35.1637 14.9546C35.2212 14.8242 35.2661 14.4544 35.4125 14.4566C36.696 15.1034 38.8701 16.9652 37.6304 18.5747C36.6343 19.8684 34.9881 18.4992 33.6994 18.5693C31.7887 18.6728 31.7552 21.6622 29.646 20.8904C27.682 20.1713 26.5595 17.8578 24.352 20.1422L24.3541 20.14Z" fill="#CD042C"/>
<path d="M12.0811 20.0548C12.5462 20.1346 12.9862 20.7879 13.3353 21.0757C14.3931 21.95 15.9944 21.9651 17.0615 21.0995C17.4524 20.7825 17.8245 20.1411 18.3482 20.0581C20.0383 19.7907 21.2006 22.7996 23.3412 22.0309C24.3488 21.6687 24.7972 20.4074 25.6637 20.0667C26.3128 19.8112 26.8072 20.1238 27.3946 20.3826L27.3904 20.5303L18.7694 25.2629L11.2188 20.1874L11.2971 20.0538C11.5386 20.0818 11.8501 20.0149 12.08 20.0538L12.0811 20.0548Z" fill="#CD042C"/>
<path d="M4.51728 21.6698C3.51491 21.5232 3.11459 20.319 3.31632 19.4092C4.84129 18.2589 5.1998 20.0592 6.02344 20.898C7.36654 22.266 8.87898 21.161 10.2597 20.5357L11.9028 21.5631C11.9164 21.5847 11.8338 21.6698 11.8244 21.6698H4.51728Z" fill="#CD042C"/>
<path d="M31.291 21.6701C31.2722 21.6658 31.199 21.5817 31.2126 21.5634C32.2014 21.227 32.6728 19.4558 33.741 19.3534C34.0828 19.321 34.4486 19.4094 34.7632 19.5431C34.9022 20.053 34.7841 20.7818 34.4235 21.1871C34.2866 21.3413 33.7744 21.6701 33.5873 21.6701H31.291Z" fill="#CD042C"/>
<path d="M27.1669 21.6698C27.1282 21.6601 27.0561 21.575 27.1418 21.5362L28.2204 20.981L29.3326 21.562C29.3472 21.5814 29.2646 21.6688 29.2542 21.6688H27.1658L27.1669 21.6698Z" fill="#CD042C"/>
</g>
<defs>
<clipPath id="clip0_4660_259">
<rect width="38" height="20" fill="white" transform="translate(0 7)"/>
</clipPath>
</defs>
</svg>


