<svg width="38" height="35" viewBox="0 0 38 35" fill="none" xmlns="http://www.w3.org/2000/svg">
<g clip-path="url(#clip0_4660_259)">
<g clip-path="url(#clip1_4660_259)">
<path d="M7.46191 12.2582C6.84529 11.7015 6.28628 11.14 5.95652 10.358C4.55532 7.02805 7.62618 3.74493 11.0452 4.87789C12.1301 5.23748 12.6916 6.0675 13.5632 6.71526C16.8093 9.12896 21.3868 9.1031 24.5717 6.59211C25.0326 6.22759 25.4359 5.73746 25.903 5.40866C29.9607 2.5627 35.1254 8.0157 30.5467 12.2249C24.0813 18.1693 13.9591 18.1212 7.46191 12.2594V12.2582Z" fill="#CD042C"/>
<path d="M14.6562 17.6953L16.1947 18.0303L16.2781 20.4625C16.424 20.7051 17.645 20.7506 17.9318 20.9513C18.1317 20.7531 17.8485 18.4872 18.0176 18.2729C18.1868 18.0586 18.7336 18.2569 18.9726 18.2532C19.2668 18.2495 19.6236 18.1251 19.9447 18.183C19.9717 18.1904 20.044 18.3849 20.044 18.4022V20.8922L21.764 20.4994C21.9135 20.3097 21.7603 19.9748 21.7554 19.758C21.7419 19.1669 21.7873 18.5857 21.8461 17.9995L23.3503 17.6965V21.5351C23.1026 23.072 22.2384 24.2948 20.8531 24.9955C20.6656 25.0904 20.1703 25.1876 20.1176 25.3637L20.1004 30.5032C19.8405 31.6756 18.1672 31.6756 17.9073 30.5032L17.8901 25.3637C17.8374 25.1876 17.3422 25.0916 17.1546 24.9955C16.1433 24.4832 15.3599 23.6717 14.9468 22.6028C14.8916 22.4611 14.6587 21.7592 14.6587 21.6631V17.6978L14.6562 17.6953Z" fill="#CD042C"/>
<path d="M33.9989 6.25721L32.4764 6.80645C32.024 5.76708 31.2174 5.07499 30.2734 4.49989L30.8141 3.08984L30.971 3.12063L33.9989 6.25721Z" fill="#CD042C"/>
<path d="M5.52622 6.74124C5.42447 6.77942 5.3264 6.74617 5.22833 6.7203C5.00032 6.66119 4.29665 6.38165 4.08212 6.27205C4.02451 6.24249 3.98405 6.28805 4.00612 6.16737L7.18608 3L7.73283 4.50118C6.79379 5.00485 5.95283 5.74374 5.525 6.74124H5.52622Z" fill="#CD042C"/>
</g>
</g>
<defs>
<clipPath id="clip0_4660_259">
<rect width="38" height="35" fill="white"/>
</clipPath>
<clipPath id="clip1_4660_259">
<rect width="30" height="33" fill="white" transform="translate(4 3)"/>
</clipPath>
</defs>
</svg>

