<svg width="38" height="20" viewBox="0 0 38 20" fill="none" xmlns="http://www.w3.org/2000/svg">
<path d="M13.6219 0.462481C13.5906 0.65114 13.4411 0.624189 13.322 0.716901C12.4137 1.41656 11.5231 2.34152 11.1699 3.47563C11.9538 2.65847 12.6948 1.92001 13.6826 1.35834C16.1723 -0.0582175 19.0863 -0.367618 21.8165 0.462481C21.8395 0.561662 21.7841 0.567052 21.7297 0.614486C21.5834 0.746008 21.3398 0.858126 21.1653 1.00151C20.3866 1.64295 19.6863 2.49569 19.3633 3.47563L20.5392 2.34691C23.5505 -0.267359 28.2226 -0.762185 31.6823 1.18693C34.1992 2.60457 35.7492 5.45601 34.1616 8.26649C32.9167 10.47 30.8367 10.6932 28.578 10.6899C22.6819 10.6813 16.7701 10.6393 10.8835 10.6317C8.17008 10.6285 5.15357 11.1945 3.453 8.44437C1.78274 5.74385 3.08927 2.88055 5.53508 1.35511C7.91191 -0.128291 10.9869 -0.32234 13.6219 0.462481Z" fill="#CD042C"/>
<path d="M4.51646 18.7311C3.84021 18.0347 3.3824 17.0828 3.29356 16.0899C3.26638 15.7891 3.22039 15.4873 3.57681 15.4269L13.1134 15.4355L18.5005 19.0298L18.7628 19.1289L25.5599 15.4355L34.3711 15.4215C34.9689 15.4043 34.8132 15.98 34.7463 16.4047C34.438 18.3495 32.8252 19.8383 30.9239 19.9978L7.27793 20.0011C6.19718 19.9224 5.27947 19.516 4.51646 18.7311Z" fill="#CD042C"/>
<path d="M24.3521 13.1404C23.9842 13.521 23.472 14.2594 22.9348 14.3435C21.3596 14.5915 20.2507 12.0839 18.3452 12.2489C17.1955 12.3491 16.8046 13.8099 15.4594 13.9554C13.6543 14.1505 13.4484 12.4127 11.9704 12.2553C10.2688 12.0731 8.71352 13.9845 7.23036 13.7517C6.44122 13.6288 6.05658 12.4451 5.55069 11.9308C5.28207 11.6581 4.77409 11.3228 4.40304 11.2851C3.02857 11.146 1.81089 13.1436 0.416571 11.5201C-0.796929 10.1068 0.883784 8.17706 2.21226 7.67145C2.72755 9.03626 3.65466 10.0831 4.90997 10.7622C6.16528 11.4414 7.0788 11.3692 8.48149 11.3864C14.2605 11.4554 20.0312 11.3896 25.806 11.3864C27.2348 11.3853 28.6762 11.4727 30.0935 11.4371C32.2958 11.3821 34.2493 10.0162 35.1618 7.95498C35.2192 7.82453 35.2642 7.45476 35.4105 7.45692C36.694 8.10375 38.8681 9.96554 37.6285 11.5751C36.6324 12.8687 34.9862 11.4996 33.6974 11.5697C31.7867 11.6732 31.7533 14.6626 29.644 13.8907C27.6801 13.1717 26.5575 10.8582 24.35 13.1426L24.3521 13.1404Z" fill="#CD042C"/>
<path d="M12.083 13.0552C12.5481 13.135 12.9882 13.7883 13.3373 14.0761C14.395 14.9504 15.9963 14.9655 17.0635 14.0998C17.4544 13.7829 17.8265 13.1414 18.3501 13.0584C20.0403 12.7911 21.2025 15.7999 23.3432 15.0313C24.3508 14.669 24.7992 13.4077 25.6656 13.0671C26.3147 12.8116 26.8091 13.1242 27.3965 13.3829L27.3923 13.5306L18.7714 18.2633L11.2207 13.1878L11.2991 13.0541C11.5405 13.0822 11.852 13.0153 12.082 13.0541L12.083 13.0552Z" fill="#CD042C"/>
<path d="M4.51337 14.6701C3.511 14.5235 3.11069 13.3193 3.31241 12.4094C4.83739 11.2591 5.1959 13.0595 6.01953 13.8982C7.36264 15.2662 8.87507 14.1612 10.2558 13.536L11.8989 14.5634C11.9125 14.5849 11.8299 14.6701 11.8205 14.6701H4.51337Z" fill="#CD042C"/>
<path d="M31.291 14.6701C31.2722 14.6658 31.199 14.5817 31.2126 14.5634C32.2014 14.227 32.6728 12.4558 33.741 12.3534C34.0828 12.321 34.4486 12.4094 34.7632 12.5431C34.9022 13.053 34.7841 13.7818 34.4235 14.1871C34.2866 14.3413 33.7744 14.6701 33.5873 14.6701H31.291Z" fill="#CD042C"/>
<path d="M27.1669 14.6701C27.1282 14.6604 27.0561 14.5752 27.1418 14.5364L28.2204 13.9812L29.3326 14.5623C29.3472 14.5817 29.2646 14.669 29.2542 14.669H27.1658L27.1669 14.6701Z" fill="#CD042C"/>
</svg>

