<svg width="32" height="35" viewBox="0 0 32 35" fill="none" xmlns="http://www.w3.org/2000/svg">
<g clip-path="url(#clip0_888_1518)">
<path d="M13.8426 23.0268C9.69453 22.6872 4.62902 20.673 2.08621 17.2993C1.29363 16.2482 0.880578 15.2967 1.07328 13.9454C1.12103 13.6123 1.38579 13.3491 1.31792 12.9922C0.286558 13.1402 0.619176 12.0093 1.0959 11.5414C1.51565 11.1293 2.67353 10.7658 2.57467 11.6771C2.8235 11.761 2.80758 11.548 2.88801 11.5175C4.28886 10.9821 5.72322 11.0257 6.88697 12.0069C7.46758 12.4962 7.77674 13.2529 8.354 13.7743C11.7355 16.8289 19.4309 16.8856 22.9624 13.8886C23.853 13.1328 24.137 12.0266 25.2605 11.5175C26.312 11.0413 27.4431 11.0816 28.4996 11.5167C28.6671 10.6975 29.4958 10.9097 30.0236 11.2963C30.5514 11.6828 31.0591 12.9181 29.9725 12.7454C30.099 13.3598 30.4526 13.9552 30.4567 14.5959C30.4752 17.1208 26.8013 20.001 24.7118 21.0456C23.1785 21.8121 21.2205 22.4174 19.6085 22.7776C19.3019 22.8459 16.3653 23.2333 13.8418 23.026L13.8426 23.0268Z" fill="#CD042C"/>
<path d="M29.3093 20.3893C29.8765 20.6155 31.207 21.3302 31.5949 21.8236C32.2308 22.6329 32.0901 23.2794 31.3787 23.9686C30.4731 24.8445 29.0823 25.185 27.8934 25.5468C21.7513 27.4171 13.647 27.3973 7.256 26.2862C5.54264 25.9885 1.01502 25.06 0.198979 23.429C-0.163801 22.7036 0.118547 22.0671 0.694973 21.5654C2.4519 20.0348 7.11441 19.1441 9.43855 18.8768C14.9749 18.2402 24.15 18.3299 29.3093 20.3885V20.3893ZM27.5515 20.6352C25.142 19.9279 22.5816 19.7058 20.0882 19.5282C13.8933 19.0857 7.2049 19.2469 1.57972 21.8384C1.26805 22.1814 0.791323 22.2883 0.851647 22.8607C0.866728 23.0047 1.10635 23.3542 1.21108 23.4603C1.27307 23.5236 1.39623 23.5187 1.45907 23.5664C2.70241 24.5122 5.07514 25.1307 6.68125 25.4514C6.96863 25.509 8.24129 25.7064 8.50521 25.7089C8.68534 25.7105 9.15117 25.7648 9.35141 25.7911C15.0168 26.5321 21.3458 26.445 26.7908 25.0558C27.849 24.7861 30.0994 24.1956 30.8207 23.4611C31.0805 23.1971 31.2656 22.8821 31.1173 22.5194C30.9439 22.0959 29.9603 21.5637 29.5246 21.368C28.9281 21.0999 28.1162 20.8013 27.5515 20.636V20.6352Z" fill="#CD042C"/>
<path d="M15.863 0.113483C19.2277 2.79877 15.072 7.12812 15.4038 10.3093C15.4784 11.0249 15.7616 11.7289 15.9375 12.4173C15.0536 11.9526 14.4579 10.5273 14.385 9.5823C14.3297 8.86348 14.3599 7.93494 14.5141 7.23422C15.072 4.69615 16.9094 3.36214 15.8554 0.490163C15.8236 0.402161 15.3955 -0.26073 15.8638 0.11266L15.863 0.113483Z" fill="#CD042C"/>
<path d="M19.1475 3.30873C19.3527 3.42552 19.8278 4.27839 19.8822 4.51443C20.3439 6.51791 18.5333 8.27301 18.5744 10.3217C18.5836 10.7881 18.7177 11.344 18.8308 11.7972L18.6632 11.8391C17.8673 10.8316 17.6679 9.70242 17.9276 8.44655C18.282 6.73422 20.0238 5.14772 18.9129 3.28735C18.9925 3.28981 19.0729 3.26514 19.1475 3.30873Z" fill="#CD042C"/>
<path d="M13.1043 1.83405C13.617 2.62853 13.3958 4.15993 13.0908 5.01445C12.537 6.5664 11.9355 7.06563 12.129 8.92024C12.1667 9.28376 12.4097 9.59711 12.3376 9.94912C11.3859 9.17191 11.2426 7.86011 11.3733 6.70046C11.5115 5.47008 12.6259 4.24875 12.7767 2.97889C12.842 2.42786 12.6879 1.82007 12.4633 1.31426C12.5479 1.24518 13.0624 1.76743 13.1051 1.83405H13.1043Z" fill="#CD042C"/>
<path d="M16.0168 20.1121L17.8457 25.2556C17.8047 25.4793 16.0352 25.5081 15.7646 25.4185L13.877 20.4394L13.9222 20.1121H16.0168Z" fill="#CD042C"/>
<path d="M20.7927 25.2112C20.4534 25.2754 18.694 25.3946 18.5683 25.2153L16.8105 20.3678L16.8642 20.1211C17.0326 20.0208 18.9185 20.1935 19.0735 20.3604L20.7927 25.2112Z" fill="#CD042C"/>
<path d="M14.8421 25.3757L12.5883 25.2861L10.9043 20.3596C11.3291 20.3571 12.7693 20.1244 13.0416 20.3588L14.8421 25.3757Z" fill="#CD042C"/>
<path d="M22.0307 20.3769L23.7114 24.7737C23.7466 24.8592 23.6578 24.9299 23.5832 24.9513C23.1995 25.0607 22.5871 25.0179 22.1799 25.0533C21.9662 25.0722 21.7718 25.2671 21.5607 25.1125L19.8691 20.2773L22.0299 20.3769H22.0307Z" fill="#CD042C"/>
<path d="M9.4841 25.0434L7.97266 20.7322C8.02712 20.6491 8.08409 20.6228 8.18211 20.6064C8.77027 20.5077 9.53604 20.6524 10.0656 20.3596L11.8225 25.1726L11.639 25.277L9.4841 25.0434Z" fill="#CD042C"/>
<path d="M25.3074 20.8614L26.5725 24.4711L24.5324 24.7927L22.9707 20.5242L25.3074 20.8614Z" fill="#CD042C"/>
<path d="M7.20125 20.8704C7.41239 20.9888 8.50575 24.4776 8.7261 24.9645C8.7261 24.9645 6.71699 24.7836 6.46815 24.7128C6.17659 24.281 6.08359 23.7325 5.9043 23.2522C5.80124 22.9742 5.12009 21.3252 5.21393 21.1895C5.61692 21.1928 6.94237 20.7256 7.20042 20.8704H7.20125Z" fill="#CD042C"/>
<path d="M29.4754 22.1164C29.5023 22.1329 29.8014 22.3401 29.8164 22.3557C30.4892 23.0408 29.4436 23.3994 28.9359 23.7062L27.2937 24.2284L26.1543 21.0999C26.2498 21.0176 27.8894 21.479 28.15 21.5662C28.5069 21.6871 29.1688 21.9314 29.4754 22.1164Z" fill="#CD042C"/>
<path d="M5.45808 24.471C5.43797 24.4982 5.30057 24.3534 5.226 24.3296C4.49793 24.0993 3.74053 23.9998 3.03843 23.6798C2.53238 23.4496 1.56888 22.947 2.21652 22.3573C2.25422 22.3228 3.0334 21.8713 3.09373 21.845C3.48415 21.6764 4.03796 21.5645 4.44933 21.428C4.52976 21.8515 5.60051 24.2745 5.45724 24.4702L5.45808 24.471Z" fill="#CD042C"/>
<path d="M31.9695 23.0186C31.9695 23.0186 32.7495 34.8652 17.3703 34.9976C-1.68691 35.1621 0.0406954 22.855 0.0406954 22.855C0.0406954 22.855 2.99404 26.7386 16.4227 26.7386C29.8515 26.7386 31.9695 23.0186 31.9695 23.0186Z" fill="#CD042C"/>
</g>
<defs>
<clipPath id="clip0_888_1518">
<rect width="32" height="35" fill="white"/>
</clipPath>
</defs>
</svg>


