<svg width="38" height="35" viewBox="0 0 38 35" fill="none" xmlns="http://www.w3.org/2000/svg">
<g clip-path="url(#clip0_4660_259)">
<path d="M16.8426 23.0271C12.6945 22.6874 7.62902 20.6732 5.08621 17.2996C4.29363 16.2485 3.88058 15.2969 4.07328 13.9456C4.12103 13.6125 4.38579 13.3494 4.31792 12.9924C3.28656 13.1405 3.61918 12.0096 4.0959 11.5416C4.51565 11.1296 5.67353 10.766 5.57467 11.6773C5.8235 11.7612 5.80758 11.5482 5.88801 11.5178C7.28886 10.9824 8.72322 11.0259 9.88697 12.0071C10.4676 12.4965 10.7767 13.2531 11.354 13.7746C14.7355 16.8291 22.4309 16.8859 25.9624 13.8889C26.853 13.133 27.137 12.0269 28.2605 11.5178C29.312 11.0416 30.4431 11.0819 31.4996 11.5169C31.6671 10.6978 32.4958 10.91 33.0236 11.2965C33.5514 11.6831 34.0591 12.9184 32.9725 12.7457C33.099 13.36 33.4526 13.9555 33.4567 14.5962C33.4752 17.1211 29.8013 20.0013 27.7118 21.0458C26.1785 21.8123 24.2205 22.4176 22.6085 22.7779C22.3019 22.8461 19.3653 23.2335 16.8418 23.0262L16.8426 23.0271Z" fill="#CD042C"/>
<path d="M32.3113 20.3894C32.8785 20.6156 34.2089 21.3303 34.5969 21.8238C35.2328 22.633 35.092 23.2795 34.3807 23.9687C33.475 24.8446 32.0842 25.1851 30.8953 25.547C24.7532 27.4172 16.6489 27.3975 10.258 26.2863C8.5446 25.9886 4.01698 25.0601 3.20093 23.4292C2.83815 22.7038 3.1205 22.0672 3.69693 21.5655C5.45385 20.0349 10.1164 19.1442 12.4405 18.8769C17.9769 18.2404 27.1519 18.33 32.3113 20.3886V20.3894ZM30.5535 20.6353C28.1439 19.928 25.5835 19.706 23.0901 19.5283C16.8952 19.0858 10.2068 19.247 4.58167 21.8386C4.27 22.1815 3.79328 22.2884 3.8536 22.8609C3.86868 23.0048 4.1083 23.3543 4.21303 23.4604C4.27503 23.5237 4.39819 23.5188 4.46103 23.5665C5.70436 24.5123 8.07709 25.1308 9.68321 25.4516C9.97058 25.5091 11.2432 25.7065 11.5072 25.709C11.6873 25.7106 12.1531 25.7649 12.3534 25.7912C18.0188 26.5323 24.3477 26.4451 29.7928 25.056C30.8509 24.7862 33.1013 24.1957 33.8227 23.4612C34.0824 23.1972 34.2676 22.8822 34.1193 22.5195C33.9459 22.096 32.9623 21.5639 32.5266 21.3681C31.9301 21.1 31.1182 20.8015 30.5535 20.6361V20.6353Z" fill="#CD042C"/>
<path d="M18.863 0.113483C22.2277 2.79877 18.072 7.12812 18.4038 10.3093C18.4784 11.0249 18.7616 11.7289 18.9375 12.4173C18.0536 11.9526 17.4579 10.5273 17.385 9.5823C17.3297 8.86348 17.3599 7.93494 17.5141 7.23422C18.072 4.69615 19.9094 3.36214 18.8554 0.490163C18.8236 0.402161 18.3955 -0.26073 18.8638 0.11266L18.863 0.113483Z" fill="#CD042C"/>
<path d="M22.1475 3.30885C22.3527 3.42564 22.8278 4.27851 22.8822 4.51456C23.3439 6.51803 21.5333 8.27313 21.5744 10.3218C21.5836 10.7882 21.7177 11.3441 21.8308 11.7973L21.6632 11.8393C20.8673 10.8318 20.6679 9.70254 20.9276 8.44667C21.282 6.73434 23.0238 5.14784 21.9129 3.28747C21.9925 3.28994 22.0729 3.26526 22.1475 3.30885Z" fill="#CD042C"/>
<path d="M16.1003 1.83417C16.6131 2.62865 16.3919 4.16005 16.0869 5.01457C15.5331 6.56652 14.9316 7.06575 15.1251 8.92036C15.1628 9.28388 15.4058 9.59724 15.3337 9.94924C14.382 9.17203 14.2387 7.86023 14.3694 6.70058C14.5076 5.4702 15.6219 4.24887 15.7728 2.97902C15.8381 2.42798 15.6839 1.82019 15.4594 1.31439C15.544 1.2453 16.0585 1.76755 16.1012 1.83417H16.1003Z" fill="#CD042C"/>
<path d="M19.0148 20.1123L20.8438 25.2559C20.8027 25.4796 19.0332 25.5084 18.7626 25.4187L16.875 20.4396L16.9202 20.1123H19.0148Z" fill="#CD042C"/>
<path d="M23.7947 25.2111C23.4554 25.2753 21.6959 25.3945 21.5703 25.2152L19.8125 20.3677L19.8661 20.121C20.0345 20.0207 21.9205 20.1934 22.0755 20.3603L23.7947 25.2111Z" fill="#CD042C"/>
<path d="M17.844 25.3758L15.5903 25.2862L13.9062 20.3597C14.331 20.3573 15.7713 20.1245 16.0435 20.3589L17.844 25.3758Z" fill="#CD042C"/>
<path d="M25.0288 20.3769L26.7095 24.7737C26.7447 24.8592 26.6558 24.9299 26.5813 24.9513C26.1976 25.0607 25.5851 25.0179 25.1779 25.0533C24.9643 25.0722 24.7699 25.2671 24.5588 25.1125L22.8672 20.2773L25.0279 20.3769H25.0288Z" fill="#CD042C"/>
<path d="M12.488 25.0437L10.9766 20.7324C11.031 20.6494 11.088 20.623 11.186 20.6066C11.7742 20.5079 12.5399 20.6527 13.0695 20.3599L14.8264 25.1728L14.6429 25.2773L12.488 25.0437Z" fill="#CD042C"/>
<path d="M28.3055 20.8611L29.5706 24.4708L27.5305 24.7924L25.9688 20.5239L28.3055 20.8611Z" fill="#CD042C"/>
<path d="M10.1993 20.8706C10.4104 20.989 11.5038 24.4779 11.7241 24.9647C11.7241 24.9647 9.71504 24.7838 9.4662 24.7131C9.17464 24.2813 9.08164 23.7327 8.90234 23.2524C8.79929 22.9744 8.11814 21.3254 8.21197 21.1897C8.61497 21.193 9.94041 20.7259 10.1985 20.8706H10.1993Z" fill="#CD042C"/>
<path d="M32.4774 22.1162C32.5042 22.1326 32.8033 22.3399 32.8184 22.3555C33.4912 23.0406 32.4456 23.3992 31.9378 23.7059L30.2957 24.2282L29.1562 21.0996C29.2518 21.0174 30.8914 21.4788 31.152 21.5659C31.5089 21.6868 32.1708 21.9311 32.4774 22.1162Z" fill="#CD042C"/>
<path d="M8.45808 24.4713C8.43797 24.4984 8.30057 24.3537 8.226 24.3298C7.49793 24.0995 6.74053 24 6.03843 23.6801C5.53238 23.4498 4.56888 22.9473 5.21652 22.3576C5.25422 22.323 6.0334 21.8715 6.09373 21.8452C6.48415 21.6766 7.03796 21.5647 7.44933 21.4282C7.52976 21.8518 8.60051 24.2747 8.45724 24.4704L8.45808 24.4713Z" fill="#CD042C"/>
<path d="M34.9695 23.0186C34.9695 23.0186 35.7495 34.8652 20.3703 34.9976C1.31309 35.1621 3.0407 22.855 3.0407 22.855C3.0407 22.855 5.99404 26.7386 19.4227 26.7386C32.8515 26.7386 34.9695 23.0186 34.9695 23.0186Z" fill="#CD042C"/>
</g>
<defs>
<clipPath id="clip0_4660_259">
<rect width="32" height="35" fill="white" transform="translate(3)"/>
</clipPath>
</defs>
</svg>



