<svg viewBox="0 0 30 40" fill="none" xmlns="http://www.w3.org/2000/svg">
<path d="M29.2704 15.2158C29.2704 21.1879 25.7455 27.2221 22.1444 31.8135C20.3522 34.0986 18.5588 36.0041 17.2133 37.3385C16.5408 38.0053 15.9809 38.5288 15.59 38.8848C15.4817 38.9835 15.3863 39.0693 15.3051 39.1417C15.224 39.0693 15.1286 38.9835 15.0202 38.8848C14.6293 38.5288 14.0695 38.0053 13.397 37.3385C12.0515 36.0041 10.2581 34.0986 8.46592 31.8135C4.86478 27.2221 1.33984 21.1879 1.33984 15.2158C1.33984 7.50296 7.59232 1.25049 15.3051 1.25049C23.018 1.25049 29.2704 7.50296 29.2704 15.2158Z" fill="#B7142B" stroke="#F0DCBB"/>
<path fill-rule="evenodd" clip-rule="evenodd" d="M23.1949 9.43346C23.1627 9.43156 23.1285 9.43156 23.0981 9.42966H7.52513C7.50614 9.42966 7.48716 9.42966 7.46628 9.42966C6.69171 9.46008 6.50566 10.1198 6.69171 10.6351L7.46628 12.7893L9.94945 19.6968C10.781 22.0126 12.6339 23.8949 15.1417 23.8949C16.0131 23.8949 16.837 23.6763 17.566 23.2922C19.2974 22.3777 20.4839 20.5201 20.4839 18.3887C20.4839 17.0083 20.0169 15.7364 19.1607 14.7249C18.7051 14.2077 18.164 13.7856 17.566 13.4757C16.8294 13.0935 16.0036 12.8844 15.1417 12.8844C13.9837 12.8844 12.9509 13.2494 12.0719 13.8978C11.6808 14.1887 11.753 14.5784 11.7549 14.645L12.4953 16.7003C12.5579 16.8829 12.8294 17.0996 13.0762 16.765C13.585 16.0729 14.2361 15.6945 15.1417 15.6945C16.239 15.6945 17.1825 16.398 17.566 17.3905C17.6856 17.6985 17.7521 18.0351 17.7521 18.3887C17.7521 18.7424 17.6856 19.0751 17.566 19.385C17.1844 20.3775 16.239 21.0791 15.1417 21.0791C13.7463 21.0791 12.9699 19.8508 12.4611 18.5351L10.1678 12.584C10.0804 12.352 10.1526 12.2588 10.3177 12.2588H20.0758C20.1821 12.2588 20.2276 12.3254 20.1859 12.449L19.5822 14.1602C19.5119 14.3484 19.5689 14.5803 19.8461 14.5803H22.2343C22.4147 14.5803 22.4887 14.5499 22.5741 14.3047L23.1911 12.6258L23.9106 10.6522L23.9163 10.637C24.0986 10.1331 23.9258 9.4905 23.1911 9.43346" fill="white"/>
</svg>
