<svg viewBox="0 0 241 241" fill="none" xmlns="http://www.w3.org/2000/svg">
<path d="M79.9697 6.93164L81.0961 9.66092L73.4714 12.8234L77.0816 21.5311L74.049 22.7875L69.3125 11.3505L79.9841 6.93164H79.9697Z" fill="white"/>
<path d="M89.6474 4.08668C90.3695 3.88451 91.0626 3.82675 91.7413 3.88451C92.42 3.94227 93.0265 4.13 93.5753 4.41881C94.124 4.70763 94.615 5.12641 95.0193 5.63183C95.4237 6.15169 95.7269 6.7582 95.9291 7.46579C96.1313 8.17338 96.1746 8.85209 96.0735 9.48748C95.9724 10.1229 95.7702 10.7149 95.4381 11.2348C95.106 11.7547 94.6728 12.2168 94.124 12.5922C93.5753 12.9677 92.9399 13.2709 92.2179 13.4587L88.3478 14.5273L89.0409 17.0688L85.864 17.9353L82.5859 5.99285L89.633 4.0578L89.6474 4.08668ZM87.568 11.6391L91.3225 10.6139C91.8857 10.455 92.3045 10.1951 92.5789 9.80518C92.8532 9.41528 92.9254 8.9243 92.7522 8.34667C92.5933 7.76905 92.2901 7.36471 91.8424 7.13366C91.3947 6.90261 90.8893 6.85928 90.3261 7.01813L86.5716 8.04342L87.568 11.6536V11.6391Z" fill="white"/>
<path d="M100.842 1.66078L101.91 9.44429L107.268 0.779899L110.401 0.34668L112.077 12.6068L108.813 13.0545L107.759 5.31426L102.387 13.9353L99.2532 14.3686L97.5781 2.10844L100.842 1.66078Z" fill="white"/>
<path d="M126.576 0L126.778 12.3756L123.486 12.4334L123.327 3.0181L119.341 3.07586L118.272 9.2709C118.085 10.4261 117.652 11.2637 116.987 11.7691C116.323 12.289 115.457 12.5489 114.388 12.5778L112.684 12.6067L112.641 9.64635L114.229 9.61747C114.691 9.61747 114.966 9.37198 115.052 8.90988L116.54 0.158847L126.561 0L126.576 0Z" fill="white"/>
<path d="M133.228 0.736162L132.896 3.34992L136.737 3.8409C137.474 3.94199 138.153 4.12971 138.745 4.43297C139.351 4.72178 139.856 5.11168 140.261 5.57378C140.665 6.03588 140.968 6.58462 141.142 7.20557C141.329 7.82652 141.373 8.50523 141.272 9.22726C141.171 9.96374 140.968 10.628 140.622 11.1912C140.29 11.7544 139.856 12.2309 139.351 12.6064C138.831 12.9818 138.254 13.2562 137.589 13.4151C136.925 13.5739 136.232 13.6028 135.495 13.5017L128.391 12.5919L129.965 0.317383L133.228 0.736162ZM132.044 10.0504L135.669 10.5125C136.405 10.6136 136.968 10.5125 137.344 10.2381C137.719 9.96374 137.95 9.4872 138.037 8.82293C138.124 8.1731 138.008 7.68211 137.719 7.37886C137.416 7.06117 136.911 6.859 136.16 6.75791L132.535 6.29581L132.059 10.0504H132.044Z" fill="white"/>
<path d="M150.485 8.60661L149.82 11.4225L142.961 9.80518L143.625 6.98926L150.485 8.60661Z" fill="white"/>
<path d="M162.876 12.7218C162.659 11.942 162.342 11.2777 161.894 10.7579C161.446 10.238 160.782 9.80477 159.887 9.48707C158.847 9.12606 157.908 9.12606 157.071 9.51596C156.233 9.90585 155.627 10.6134 155.266 11.6532C155.092 12.1586 155.006 12.6496 155.035 13.1261C155.064 13.6027 155.165 14.0359 155.367 14.4402C155.569 14.8446 155.843 15.2056 156.219 15.5088C156.58 15.8121 157.013 16.0576 157.533 16.2453C158.414 16.563 159.208 16.6496 159.887 16.5341C160.565 16.4186 161.23 16.1009 161.865 15.6099L163.8 17.8049C162.818 18.7146 161.721 19.2634 160.522 19.4511C159.324 19.6389 158.024 19.4944 156.609 19.0035C155.67 18.6713 154.847 18.2237 154.139 17.6605C153.432 17.0973 152.883 16.4475 152.479 15.711C152.074 14.9745 151.843 14.1658 151.771 13.2994C151.713 12.4185 151.843 11.5088 152.175 10.5701C152.508 9.63148 152.97 8.83724 153.576 8.20186C154.183 7.56647 154.876 7.08993 155.656 6.77223C156.435 6.45454 157.273 6.29569 158.168 6.28125C159.064 6.28125 159.973 6.42566 160.912 6.75779C163.728 7.7542 165.345 9.55928 165.779 12.2019L162.89 12.7218H162.876Z" fill="white"/>
<path d="M179.757 15.5239L178.429 18.1665L171.194 14.513L170.443 16.0149L176.941 19.2929L175.613 21.9355L169.114 18.6575L168.335 20.2171L175.829 24.0006L174.457 26.7154L164.031 21.4446L169.62 10.3975L179.786 15.5383L179.757 15.5239Z" fill="white"/>
<path d="M187.21 25.6759C187.398 25.8058 187.557 25.8347 187.701 25.777C187.846 25.7192 187.976 25.5892 188.106 25.4159C188.308 25.1127 188.293 24.7372 188.033 24.3329C187.773 23.9286 187.254 23.4376 186.474 22.9177C185.997 22.6 185.578 22.3401 185.217 22.1235C184.842 21.9213 184.481 21.748 184.134 21.6325C183.788 21.517 183.412 21.4303 183.037 21.3726C182.661 21.3148 182.228 21.2859 181.752 21.2715L181.939 18.5566C182.56 18.5566 183.138 18.5855 183.672 18.6577C184.207 18.7299 184.712 18.8599 185.203 19.0187C185.694 19.1776 186.17 19.3798 186.647 19.6252C187.109 19.8707 187.586 20.1451 188.048 20.4628C189.911 21.7336 191.037 22.9899 191.412 24.2318C191.73 25.2427 191.571 26.2391 190.907 27.2066C190.719 27.4954 190.474 27.7265 190.185 27.9286C189.896 28.1308 189.607 28.2319 189.304 28.2463C189.506 28.8095 189.593 29.3438 189.55 29.8637C189.506 30.3835 189.29 30.9323 188.9 31.5099C188.539 32.0442 188.091 32.4341 187.557 32.694C187.023 32.954 186.416 33.0984 185.723 33.1417C185.001 33.1706 184.235 33.0117 183.412 32.6652C182.589 32.3186 181.737 31.842 180.827 31.2211C180.25 30.8312 179.73 30.4269 179.282 30.037C178.835 29.6471 178.445 29.2427 178.098 28.8095C177.752 28.3907 177.448 27.9286 177.174 27.4376C176.9 26.9467 176.654 26.4124 176.438 25.8347L179.037 24.6795C179.383 25.5026 179.831 26.2679 180.409 26.9755C180.986 27.6831 181.694 28.3185 182.546 28.8961C182.965 29.185 183.369 29.4304 183.744 29.6326C184.12 29.8348 184.466 29.9648 184.77 30.037C185.073 30.1092 185.347 30.1092 185.607 30.0225C185.867 29.9359 186.069 29.777 186.257 29.5171C186.43 29.2572 186.474 29.0117 186.373 28.7806C186.272 28.5496 185.997 28.2896 185.535 27.9719L181.391 25.156L183.008 22.7733L187.21 25.6326V25.6759Z" fill="white"/>
<path d="M202.095 40.3181C201.445 41.0401 200.708 41.5744 199.9 41.9065C199.091 42.2387 198.253 42.412 197.401 42.412C196.549 42.412 195.712 42.2387 194.874 41.9065C194.037 41.5744 193.271 41.0979 192.593 40.4769C191.9 39.856 191.351 39.1484 190.947 38.3541C190.528 37.5599 190.282 36.7368 190.181 35.8848C190.095 35.0328 190.181 34.1952 190.427 33.3432C190.672 32.4912 191.134 31.7114 191.784 30.9894C192.434 30.2674 193.17 29.7331 193.979 29.4009C194.802 29.0688 195.625 28.8955 196.477 28.8955C197.329 28.8955 198.167 29.0688 199.004 29.4009C199.842 29.7331 200.607 30.2096 201.286 30.8306C201.979 31.4515 202.528 32.1591 202.932 32.9533C203.351 33.7476 203.597 34.5707 203.698 35.4227C203.784 36.2602 203.698 37.1122 203.452 37.9642C203.207 38.8162 202.745 39.596 202.095 40.3181ZM194.21 33.2133C193.835 33.632 193.56 34.0797 193.387 34.5418C193.214 35.0039 193.156 35.466 193.185 35.9281C193.214 36.3902 193.344 36.8379 193.56 37.2566C193.777 37.6754 194.066 38.0653 194.456 38.4119C194.831 38.744 195.25 39.004 195.697 39.1772C196.145 39.3505 196.593 39.4227 197.055 39.4083C197.517 39.3939 197.965 39.2783 198.412 39.0617C198.86 38.8451 199.264 38.5274 199.64 38.1086C200.015 37.6899 200.29 37.2422 200.463 36.7801C200.622 36.318 200.694 35.8559 200.665 35.3938C200.636 34.9317 200.506 34.4985 200.29 34.0653C200.073 33.632 199.77 33.2566 199.394 32.91C199.004 32.5634 198.586 32.3035 198.152 32.1302C197.705 31.9569 197.257 31.8847 196.795 31.8992C196.333 31.8992 195.871 32.0291 195.438 32.2457C194.99 32.4623 194.586 32.78 194.21 33.1988V33.2133Z" fill="white"/>
<path d="M210.574 40.5635L207.122 43.4805L211.036 48.1159L214.487 45.1989L216.61 47.7116L207.151 55.6973L205.028 53.1846L208.769 50.0221L204.855 45.3866L201.115 48.5491L198.992 46.0365L208.451 38.0508L210.574 40.5635Z" fill="white"/>
<path d="M223.914 57.0549L224.925 58.7156L223.683 59.6542L224.968 60.3907L224.001 62.1236L222.585 61.4593V62.99L220.564 63.0478L220.52 61.5604L219.062 62.2102L218.051 60.5496L219.336 59.6109L218.008 58.8456L219.019 57.0838L220.391 57.8347L220.448 56.2318L222.427 56.1885L222.513 57.7047L223.928 57.0549H223.914Z" fill="white"/>
<path d="M234.123 80.189L231.393 81.3154L228.245 73.6763L219.538 77.272L218.281 74.225L229.718 69.5029L234.123 80.1746V80.189Z" fill="white"/>
<path d="M236.958 89.8351C237.16 90.5572 237.218 91.2503 237.16 91.929C237.102 92.6077 236.915 93.2142 236.611 93.763C236.308 94.3117 235.904 94.8027 235.398 95.207C234.878 95.6114 234.272 95.9146 233.564 96.1168C232.857 96.3045 232.178 96.3623 231.543 96.2612C230.893 96.1746 230.315 95.958 229.795 95.6258C229.276 95.2937 228.813 94.8605 228.438 94.3117C228.048 93.763 227.759 93.1276 227.572 92.4056L226.517 88.5355L223.976 89.2286L223.109 86.0517L235.052 82.7881L236.972 89.8351H236.958ZM229.405 87.7412L230.431 91.4958C230.59 92.059 230.85 92.4778 231.239 92.7666C231.629 93.0409 232.12 93.1131 232.698 92.9399C233.276 92.781 233.68 92.4778 233.911 92.0301C234.142 91.5824 234.185 91.077 234.027 90.5138L233.001 86.7593L229.391 87.7412H229.405Z" fill="white"/>
<path d="M239.372 101.042L231.588 102.096L240.253 107.468L240.671 110.601L228.411 112.262L227.964 108.999L235.704 107.944L227.083 102.558L226.664 99.4243L238.924 97.7637L239.372 101.027V101.042Z" fill="white"/>
<path d="M240.996 126.702L228.621 126.904L228.563 123.612L237.978 123.453L237.92 119.467L231.725 118.398C230.57 118.211 229.732 117.778 229.213 117.113C228.693 116.449 228.433 115.583 228.404 114.514L228.375 112.81L231.335 112.767L231.364 114.355C231.364 114.817 231.61 115.092 232.072 115.178L240.823 116.666L240.982 126.687L240.996 126.702Z" fill="white"/>
<path d="M240.235 133.475L237.621 133.128L237.115 136.97C237.014 137.706 236.827 138.385 236.523 138.977C236.22 139.583 235.845 140.074 235.383 140.493C234.921 140.897 234.372 141.186 233.751 141.374C233.13 141.562 232.451 141.605 231.729 141.504C230.993 141.403 230.328 141.186 229.765 140.854C229.202 140.522 228.725 140.089 228.35 139.569C227.975 139.049 227.7 138.471 227.556 137.807C227.411 137.143 227.368 136.45 227.469 135.713L228.393 128.608L240.668 130.197L240.249 133.46L240.235 133.475ZM230.935 132.262L230.458 135.886C230.357 136.623 230.458 137.186 230.733 137.562C231.007 137.937 231.484 138.168 232.148 138.255C232.798 138.341 233.289 138.226 233.606 137.937C233.924 137.634 234.126 137.114 234.227 136.377L234.704 132.753L230.949 132.262H230.935Z" fill="white"/>
<path d="M232.347 150.717L229.531 150.053L231.149 143.193L233.965 143.858L232.347 150.717Z" fill="white"/>
<path d="M228.222 163.093C229.002 162.876 229.666 162.559 230.201 162.111C230.735 161.663 231.154 160.999 231.471 160.104C231.832 159.064 231.833 158.126 231.443 157.288C231.053 156.45 230.345 155.844 229.305 155.468C228.8 155.295 228.309 155.209 227.832 155.237C227.356 155.266 226.923 155.367 226.518 155.57C226.114 155.772 225.753 156.046 225.45 156.407C225.132 156.768 224.887 157.201 224.713 157.707C224.396 158.588 224.309 159.382 224.424 160.061C224.54 160.739 224.858 161.404 225.334 162.039L223.139 163.96C222.244 162.978 221.695 161.88 221.493 160.682C221.305 159.483 221.45 158.183 221.955 156.768C222.287 155.829 222.735 155.006 223.298 154.299C223.861 153.591 224.511 153.042 225.248 152.638C225.984 152.234 226.793 152.003 227.674 151.945C228.554 151.887 229.464 152.017 230.403 152.349C231.342 152.681 232.136 153.158 232.771 153.764C233.407 154.371 233.883 155.064 234.201 155.844C234.518 156.624 234.677 157.461 234.692 158.357C234.692 159.252 234.533 160.162 234.215 161.1C233.219 163.916 231.399 165.534 228.771 165.967L228.251 163.079L228.222 163.093Z" fill="white"/>
<path d="M225.389 179.959L222.761 178.616L226.429 171.396L224.927 170.631L221.635 177.115L219.006 175.772L222.299 169.288L220.739 168.494L216.941 175.974L214.227 174.602L219.512 164.176L230.544 169.779L225.389 179.945V179.959Z" fill="white"/>
<path d="M215.225 187.411C215.095 187.598 215.066 187.757 215.124 187.902C215.181 188.046 215.297 188.176 215.485 188.306C215.788 188.523 216.163 188.494 216.568 188.234C216.986 187.974 217.463 187.454 217.983 186.689C218.3 186.226 218.56 185.793 218.777 185.432C218.994 185.071 219.152 184.696 219.268 184.349C219.383 184.003 219.47 183.627 219.528 183.252C219.586 182.876 219.615 182.443 219.629 181.967L222.344 182.154C222.344 182.775 222.315 183.353 222.243 183.887C222.171 184.421 222.041 184.927 221.867 185.418C221.708 185.909 221.506 186.385 221.261 186.862C221.015 187.324 220.741 187.801 220.423 188.263C219.152 190.125 217.896 191.237 216.64 191.627C215.629 191.945 214.633 191.772 213.665 191.107C213.376 190.92 213.145 190.674 212.943 190.385C212.741 190.097 212.64 189.808 212.625 189.505C212.062 189.707 211.528 189.793 211.008 189.75C210.488 189.707 209.939 189.49 209.362 189.086C208.827 188.725 208.437 188.277 208.178 187.743C207.918 187.208 207.773 186.602 207.73 185.909C207.701 185.187 207.86 184.421 208.206 183.598C208.553 182.775 209.03 181.923 209.65 181.028C210.04 180.45 210.445 179.93 210.835 179.497C211.225 179.049 211.643 178.66 212.062 178.313C212.481 177.966 212.943 177.663 213.434 177.389C213.925 177.114 214.459 176.869 215.037 176.652L216.192 179.252C215.369 179.584 214.604 180.046 213.896 180.624C213.188 181.201 212.553 181.909 211.961 182.761C211.672 183.18 211.427 183.584 211.225 183.959C211.022 184.335 210.878 184.681 210.82 184.985C210.748 185.288 210.748 185.562 210.82 185.822C210.892 186.082 211.066 186.284 211.326 186.472C211.586 186.645 211.831 186.689 212.062 186.588C212.293 186.486 212.553 186.212 212.871 185.764L215.701 181.62L218.084 183.252L215.225 187.454V187.411Z" fill="white"/>
<path d="M200.563 202.27C199.841 201.62 199.321 200.883 198.974 200.075C198.642 199.252 198.469 198.429 198.469 197.577C198.469 196.725 198.642 195.887 198.974 195.049C199.306 194.212 199.783 193.461 200.404 192.768C201.025 192.089 201.732 191.526 202.527 191.122C203.321 190.703 204.144 190.457 204.996 190.371C205.833 190.284 206.685 190.371 207.537 190.616C208.389 190.876 209.169 191.324 209.891 191.974C210.613 192.623 211.133 193.36 211.48 194.169C211.826 194.977 211.985 195.815 211.985 196.667C211.985 197.519 211.812 198.356 211.48 199.194C211.148 200.031 210.671 200.782 210.05 201.475C209.429 202.169 208.722 202.717 207.927 203.122C207.133 203.526 206.31 203.786 205.458 203.873C204.606 203.959 203.768 203.873 202.916 203.627C202.064 203.367 201.285 202.92 200.563 202.27ZM207.682 194.4C207.263 194.024 206.815 193.75 206.353 193.576C205.891 193.403 205.429 193.345 204.967 193.374C204.505 193.403 204.057 193.533 203.639 193.735C203.22 193.952 202.83 194.241 202.483 194.631C202.137 195.006 201.891 195.425 201.718 195.858C201.545 196.306 201.472 196.753 201.487 197.215C201.501 197.678 201.617 198.125 201.833 198.573C202.05 199.021 202.368 199.425 202.786 199.815C203.205 200.19 203.653 200.465 204.115 200.638C204.577 200.811 205.039 200.869 205.501 200.84C205.963 200.811 206.397 200.696 206.83 200.479C207.263 200.262 207.639 199.959 207.985 199.584C208.332 199.194 208.592 198.775 208.765 198.342C208.938 197.894 209.01 197.447 208.996 196.984C208.996 196.522 208.866 196.06 208.664 195.627C208.447 195.179 208.13 194.775 207.711 194.385L207.682 194.4Z" fill="white"/>
<path d="M200.307 210.747L197.39 207.281L192.754 211.195L195.671 214.661L193.159 216.783L185.188 207.31L187.7 205.188L190.863 208.942L195.498 205.029L192.336 201.274L194.848 199.151L202.82 208.624L200.307 210.747Z" fill="white"/>
<path d="M183.79 224.061L182.115 225.072L181.19 223.83L180.454 225.115L178.721 224.147L179.385 222.732H177.855L177.797 220.71L179.284 220.667L178.634 219.209L180.31 218.198L181.248 219.497L182.014 218.169L183.775 219.18L183.024 220.537L184.627 220.595L184.671 222.573L183.154 222.646L183.804 224.061H183.79Z" fill="white"/>
<path d="M160.681 234.227L159.555 231.498L167.194 228.364L163.613 219.642L166.659 218.386L171.367 229.837L160.681 234.227Z" fill="white"/>
<path d="M150.992 237.058C150.27 237.26 149.577 237.317 148.898 237.26C148.22 237.202 147.613 237.014 147.064 236.711C146.516 236.408 146.039 236.003 145.62 235.498C145.201 234.993 144.913 234.372 144.725 233.664C144.537 232.956 144.479 232.278 144.58 231.642C144.682 230.992 144.884 230.415 145.216 229.895C145.548 229.375 145.981 228.927 146.53 228.538C147.079 228.162 147.714 227.873 148.436 227.671L152.321 226.617L151.628 224.075L154.804 223.209L158.054 235.151L151.007 237.072L150.992 237.058ZM153.1 229.505L149.346 230.53C148.783 230.689 148.364 230.949 148.075 231.339C147.786 231.729 147.729 232.206 147.887 232.798C148.046 233.375 148.349 233.78 148.797 234.011C149.245 234.242 149.75 234.285 150.313 234.126L154.068 233.101L153.086 229.491L153.1 229.505Z" fill="white"/>
<path d="M139.784 239.455L138.744 231.671L133.358 240.321L130.224 240.74L128.578 228.466L131.842 228.032L132.881 235.772L138.282 227.166L141.416 226.747L143.062 239.022L139.799 239.455H139.784Z" fill="white"/>
<path d="M113.633 240.841L113.835 228.466L117.127 228.524L116.969 237.939L120.954 237.997L122.225 231.845C122.456 230.704 122.904 229.881 123.582 229.376C124.261 228.885 125.142 228.639 126.211 228.654L127.915 228.682L127.871 231.643L126.283 231.614C125.821 231.614 125.546 231.83 125.445 232.293L123.669 240.986L113.647 240.827L113.633 240.841Z" fill="white"/>
<path d="M107.396 240.278L107.742 237.664L103.901 237.158C103.165 237.057 102.486 236.87 101.894 236.566C101.287 236.263 100.796 235.888 100.392 235.426C99.9877 234.963 99.6989 234.415 99.5112 233.794C99.3234 233.173 99.2801 232.494 99.3812 231.772C99.4823 231.036 99.6989 230.371 100.031 229.808C100.363 229.245 100.796 228.768 101.316 228.393C101.836 228.018 102.414 227.743 103.078 227.599C103.742 227.44 104.435 227.411 105.172 227.512L112.277 228.451L110.674 240.725L107.41 240.292L107.396 240.278ZM108.609 230.978L104.999 230.501C104.262 230.4 103.699 230.501 103.323 230.761C102.948 231.036 102.717 231.512 102.63 232.176C102.544 232.826 102.645 233.317 102.948 233.635C103.251 233.953 103.757 234.155 104.508 234.256L108.118 234.732L108.609 230.978Z" fill="white"/>
<path d="M90.125 232.35L90.7893 229.534L97.6486 231.166L96.9843 233.967L90.125 232.336V232.35Z" fill="white"/>
<path d="M77.7487 228.206C77.9653 229 78.283 229.65 78.7162 230.184C79.1494 230.718 79.8281 231.137 80.7235 231.455C81.7632 231.83 82.7018 231.816 83.5394 231.44C84.3769 231.065 84.9835 230.343 85.3589 229.303C85.5322 228.798 85.6188 228.307 85.6044 227.83C85.59 227.354 85.4744 226.92 85.2723 226.516C85.0701 226.112 84.7957 225.751 84.4347 225.447C84.0737 225.13 83.6405 224.884 83.1351 224.711C82.2542 224.393 81.4599 224.292 80.7812 224.422C80.1025 224.538 79.4382 224.841 78.8029 225.332L76.8823 223.122C77.8642 222.227 78.9617 221.678 80.1603 221.491C81.3589 221.303 82.6585 221.462 84.0737 221.953C85.0123 222.285 85.8355 222.733 86.543 223.31C87.2506 223.873 87.7994 224.523 88.1893 225.26C88.5792 225.996 88.8247 226.805 88.8824 227.686C88.9402 228.567 88.8102 229.476 88.4781 230.415C88.146 231.354 87.6694 232.148 87.0629 232.769C86.4564 233.39 85.7632 233.881 84.9835 234.184C84.2037 234.487 83.3661 234.66 82.4708 234.66C81.5755 234.66 80.6657 234.502 79.7271 234.17C76.9111 233.173 75.2938 231.354 74.875 228.711L77.7631 228.191L77.7487 228.206Z" fill="white"/>
<path d="M60.8828 225.346L62.2258 222.718L69.4461 226.4L70.2115 224.899L63.7276 221.592L65.0706 218.963L71.5545 222.27L72.3487 220.711L64.8684 216.898L66.2547 214.184L76.6664 219.483L71.049 230.516L60.8973 225.346H60.8828Z" fill="white"/>
<path d="M53.488 215.194C53.3003 215.064 53.1415 215.035 52.9971 215.093C52.8526 215.151 52.7227 215.266 52.5927 215.454C52.3761 215.757 52.405 216.133 52.6649 216.552C52.9248 216.97 53.4447 217.447 54.2101 217.981C54.6722 218.299 55.1054 218.559 55.4664 218.775C55.8419 218.978 56.2029 219.151 56.5495 219.266C56.896 219.382 57.2715 219.469 57.6469 219.526C58.0224 219.584 58.4556 219.613 58.9322 219.627L58.73 222.342C58.109 222.342 57.5314 222.313 56.9971 222.227C56.4628 222.14 55.9574 222.025 55.4664 221.851C54.9754 221.692 54.4989 221.476 54.0223 221.23C53.5602 220.985 53.0837 220.696 52.6216 220.378C50.7587 219.108 49.6468 217.851 49.2714 216.595C48.9537 215.584 49.127 214.588 49.7912 213.62C49.979 213.331 50.2244 213.1 50.5133 212.898C50.8021 212.696 51.0909 212.595 51.3941 212.58C51.192 212.017 51.1053 211.483 51.1486 210.963C51.192 210.443 51.4086 209.894 51.8129 209.317C52.1739 208.782 52.6216 208.393 53.1559 208.133C53.6902 207.873 54.2967 207.728 54.9899 207.685C55.7119 207.656 56.4772 207.815 57.3004 208.161C58.109 208.508 58.9755 208.999 59.8708 209.606C60.4484 209.995 60.9683 210.4 61.4015 210.79C61.8492 211.18 62.2391 211.598 62.5856 212.017C62.9322 212.436 63.2355 212.898 63.5098 213.389C63.7842 213.88 64.0297 214.414 64.2463 214.992L61.647 216.147C61.3149 215.324 60.8528 214.559 60.2751 213.851C59.6975 213.144 58.9899 212.494 58.1379 211.916C57.7191 211.627 57.3148 211.382 56.9393 211.18C56.5639 210.977 56.2173 210.833 55.9141 210.761C55.6108 210.689 55.3364 210.689 55.0765 210.761C54.8166 210.847 54.6144 211.006 54.4267 211.266C54.2389 211.526 54.2101 211.772 54.3112 212.003C54.4122 212.234 54.6866 212.508 55.1343 212.811L59.2787 215.642L57.6469 218.024L53.4447 215.165L53.488 215.194Z" fill="white"/>
<path d="M38.6278 200.494C39.2777 199.772 40.0141 199.252 40.8372 198.906C41.6604 198.574 42.4835 198.4 43.3355 198.415C44.1875 198.415 45.025 198.588 45.8626 198.92C46.7001 199.252 47.4511 199.729 48.1442 200.35C48.8229 200.971 49.3717 201.679 49.7904 202.473C50.2092 203.267 50.4547 204.09 50.5414 204.942C50.628 205.78 50.5414 206.632 50.2959 207.484C50.0359 208.336 49.5883 209.115 48.9384 209.837C48.2886 210.559 47.5521 211.079 46.729 211.426C45.9059 211.758 45.0828 211.931 44.2308 211.917C43.3788 211.917 42.5412 211.744 41.7037 211.411C40.8661 211.079 40.1152 210.603 39.4221 209.982C38.7289 209.361 38.1946 208.653 37.7758 207.859C37.357 207.065 37.1116 206.242 37.0249 205.39C36.9383 204.538 37.0249 203.7 37.2704 202.848C37.5303 201.996 37.978 201.216 38.6278 200.494ZM46.4835 207.628C46.859 207.209 47.1334 206.762 47.3066 206.3C47.4799 205.837 47.5377 205.375 47.5088 204.913C47.4799 204.451 47.35 204.003 47.1478 203.585C46.9312 203.166 46.6424 202.776 46.2525 202.429C45.877 202.083 45.4582 201.837 45.025 201.664C44.5774 201.491 44.1297 201.419 43.6676 201.433C43.2055 201.447 42.7578 201.563 42.3102 201.78C41.8625 201.996 41.4582 202.314 41.0683 202.733C40.6928 203.151 40.4185 203.599 40.2452 204.061C40.0719 204.523 40.0141 204.985 40.0286 205.448C40.043 205.91 40.173 206.343 40.3896 206.776C40.6062 207.209 40.895 207.585 41.2849 207.931C41.6748 208.278 42.0791 208.538 42.5268 208.711C42.9745 208.884 43.4221 208.957 43.8842 208.942C44.3463 208.942 44.8084 208.812 45.2416 208.61C45.6893 208.393 46.0936 208.076 46.4835 207.657V207.628Z" fill="white"/>
<path d="M30.1702 200.248L33.6359 197.345L29.737 192.696L26.2712 195.598L24.1484 193.071L33.6215 185.114L35.7443 187.627L31.9897 190.775L35.8887 195.425L39.6433 192.277L41.766 194.789L32.293 202.746L30.1702 200.219V200.248Z" fill="white"/>
<path d="M16.8522 183.685L15.8558 182.01L17.0977 181.086L15.8125 180.335L16.78 178.602L18.1952 179.266L18.2241 177.735L20.2313 177.678L20.2602 179.165L21.7332 178.515L22.7296 180.19L21.4299 181.129L22.7585 181.894L21.7476 183.642L20.3902 182.891L20.3324 184.494L18.3541 184.537L18.2819 183.021L16.8667 183.656L16.8522 183.685Z" fill="white"/>
<path d="M6.71875 160.566L9.44803 159.454L12.5817 167.093L21.3038 163.526L22.5457 166.573L11.0943 171.267L6.71875 160.58V160.566Z" fill="white"/>
<path d="M3.91059 150.905C3.72286 150.183 3.65065 149.49 3.72286 148.811C3.79506 148.133 3.96835 147.526 4.2716 146.977C4.57486 146.429 4.97919 145.952 5.49906 145.533C6.01892 145.129 6.62543 144.826 7.33302 144.638C8.04061 144.45 8.71932 144.392 9.35471 144.494C10.0045 144.595 10.5822 144.797 11.102 145.129C11.6219 145.461 12.0696 145.894 12.4595 146.457C12.8493 147.021 13.1237 147.642 13.3259 148.364L14.3801 152.248L16.9361 151.555L17.8025 154.732L5.86007 157.967L3.95391 150.92L3.91059 150.905ZM11.463 153.014L10.4522 149.259C10.2934 148.696 10.0334 148.277 9.64352 147.988C9.25363 147.699 8.77709 147.642 8.18502 147.8C7.60739 147.959 7.20305 148.263 6.972 148.71C6.74095 149.158 6.69763 149.663 6.85648 150.226L7.86732 153.981L11.4775 152.999L11.463 153.014Z" fill="white"/>
<path d="M1.52741 139.699L9.31092 138.659L0.660966 133.259L0.242188 130.125L12.5167 128.493L12.95 131.757L5.20977 132.782L13.8164 138.183L14.2352 141.316L1.96062 142.948L1.52741 139.685V139.699Z" fill="white"/>
<path d="M0.160031 113.59L12.5357 113.792L12.4779 117.084L3.0626 116.926L3.00484 120.911L9.15656 122.182C10.2974 122.413 11.1205 122.861 11.6259 123.539C12.1169 124.218 12.3624 125.099 12.3479 126.168L12.3191 127.872L9.35872 127.828L9.38761 126.24C9.38761 125.778 9.171 125.503 8.7089 125.402L0.015625 123.626L0.174472 113.604L0.160031 113.59Z" fill="white"/>
<path d="M0.753532 107.25L3.36729 107.597L3.87271 103.756C3.9738 103.019 4.17597 102.34 4.46478 101.748C4.76803 101.142 5.14349 100.651 5.62003 100.247C6.08213 99.8422 6.63088 99.5534 7.25182 99.3657C7.87277 99.1924 8.55148 99.1491 9.27352 99.2357C10.01 99.3368 10.6743 99.5534 11.2374 99.8855C11.8006 100.218 12.2772 100.651 12.6526 101.171C13.0281 101.691 13.288 102.283 13.4469 102.933C13.6057 103.597 13.6346 104.29 13.5335 105.026L12.5949 112.131L0.320312 110.499L0.753532 107.236V107.25ZM10.0533 108.492L10.5299 104.882C10.6309 104.146 10.5299 103.582 10.2699 103.207C9.99555 102.831 9.51901 102.6 8.85474 102.514C8.20491 102.427 7.71393 102.528 7.39623 102.831C7.07854 103.135 6.87637 103.64 6.77528 104.391L6.29874 108.001L10.0533 108.492Z" fill="white"/>
<path d="M8.69311 90.0371L11.4946 90.7158L9.84836 97.5751L7.04688 96.8964L8.69311 90.0371Z" fill="white"/>
<path d="M12.8534 77.676C12.0592 77.8926 11.4093 78.2103 10.875 78.6435C10.3407 79.0768 9.92196 79.7555 9.60426 80.6508C9.22881 81.6905 9.24325 82.6292 9.6187 83.4667C9.99416 84.3043 10.7162 84.9108 11.7559 85.2862C12.2613 85.4595 12.7523 85.5462 13.2289 85.5317C13.7054 85.5173 14.1386 85.4018 14.543 85.1996C14.9473 84.9974 15.3083 84.723 15.6116 84.362C15.9293 84.001 16.1748 83.5678 16.348 83.0624C16.6657 82.1815 16.7668 81.3873 16.6369 80.7085C16.5213 80.0298 16.2181 79.3656 15.7271 78.7302L17.9365 76.8096C18.8318 77.7915 19.3806 78.889 19.5683 80.0876C19.756 81.2862 19.5972 82.5858 19.1062 84.001C18.7741 84.9397 18.312 85.7628 17.7488 86.4704C17.1856 87.178 16.5358 87.7267 15.7993 88.1166C15.0628 88.5209 14.2542 88.752 13.3733 88.8098C12.4924 88.8675 11.5826 88.7375 10.644 88.391C9.70535 88.0588 8.91111 87.5823 8.29016 86.9758C7.65477 86.3693 7.19267 85.6761 6.87498 84.8963C6.55729 84.1165 6.39844 83.279 6.39844 82.3692C6.39844 81.4739 6.55728 80.5641 6.88942 79.6255C7.88582 76.8096 9.71979 75.2067 12.348 74.7734L12.8534 77.6616V77.676Z" fill="white"/>
<path d="M15.7244 60.8096L18.3526 62.1526L14.6703 69.3729L16.1721 70.1382L19.479 63.6544L22.1072 64.9974L18.8003 71.4812L20.3599 72.2754L24.1722 64.7952L26.8871 66.1815L21.5729 76.5932L10.5547 70.9613L15.7389 60.8096H15.7244Z" fill="white"/>
<path d="M25.9059 53.4013C26.0359 53.2136 26.0648 53.0547 26.007 52.9103C25.9493 52.7659 25.8337 52.636 25.646 52.506C25.3427 52.2894 24.9817 52.3183 24.5485 52.5782C24.1297 52.8381 23.6532 53.3436 23.1189 54.1234C22.8012 54.5855 22.5268 55.0042 22.3247 55.3797C22.108 55.7552 21.9492 56.1162 21.8337 56.4627C21.7181 56.8093 21.6171 57.1848 21.5737 57.5602C21.516 57.9357 21.4871 58.3689 21.4727 58.8455L18.7578 58.6433C18.7578 58.0223 18.7867 57.4447 18.8733 56.9104C18.96 56.3761 19.0755 55.8707 19.2488 55.3797C19.4076 54.8887 19.6243 54.4122 19.8697 53.9501C20.1152 53.488 20.404 53.0259 20.7217 52.5493C21.9925 50.6865 23.2633 49.5746 24.5052 49.1991C25.516 48.8814 26.5124 49.0547 27.48 49.719C27.7688 49.9067 27.9998 50.1522 28.202 50.441C28.4042 50.7298 28.5053 51.0186 28.5197 51.3219C29.0829 51.1197 29.6172 51.0331 30.137 51.0764C30.6569 51.1197 31.2057 51.3363 31.7833 51.7407C32.3176 52.1017 32.7075 52.5493 32.9674 53.0836C33.2273 53.6179 33.3717 54.2244 33.4006 54.9176C33.4295 55.6396 33.2707 56.405 32.9241 57.2281C32.5775 58.0512 32.0865 58.9032 31.48 59.7985C31.0901 60.3762 30.6858 60.8816 30.2959 61.3292C29.906 61.7769 29.4872 62.1668 29.0684 62.5134C28.6497 62.86 28.1876 63.1632 27.6966 63.4376C27.2056 63.712 26.6713 63.943 26.0792 64.1596L24.9384 61.5603C25.7615 61.2282 26.5413 60.7661 27.2489 60.2029C27.9565 59.6397 28.6063 58.9177 29.184 58.0657C29.4728 57.6469 29.7183 57.257 29.9204 56.8671C30.1226 56.4916 30.267 56.145 30.3392 55.8418C30.4114 55.5385 30.4114 55.2642 30.3392 55.0042C30.267 54.7443 30.0937 54.5421 29.8338 54.3544C29.5739 54.1811 29.3284 54.1378 29.0973 54.2389C28.8663 54.34 28.5919 54.6143 28.2886 55.062L25.4583 59.192L23.0756 57.5602L25.9493 53.3724L25.9059 53.4013Z" fill="white"/>
<path d="M40.6043 38.5856C41.3263 39.2354 41.8462 39.9719 42.1783 40.795C42.5104 41.6182 42.6837 42.4413 42.6693 43.2933C42.6693 44.1453 42.496 44.9828 42.1639 45.8204C41.8317 46.6579 41.3552 47.4089 40.7342 48.102C40.1133 48.7952 39.4057 49.3295 38.6115 49.7482C37.8172 50.167 36.9941 50.4125 36.1421 50.4992C35.2901 50.5858 34.4525 50.4992 33.6005 50.2392C32.7485 49.9793 31.9688 49.5316 31.2612 48.8818C30.5536 48.232 30.0193 47.4955 29.6871 46.6724C29.355 45.8493 29.1817 45.0261 29.1961 44.1742C29.1961 43.3222 29.3694 42.4846 29.7016 41.647C30.0337 40.8095 30.5102 40.0586 31.1312 39.3654C31.7521 38.6867 32.4597 38.138 33.254 37.7192C34.0482 37.3004 34.8713 37.0549 35.7233 36.9683C36.5753 36.8816 37.4129 36.9683 38.2649 37.2138C39.1169 37.4737 39.8967 37.9213 40.6043 38.5712V38.5856ZM33.4706 46.4269C33.8894 46.8024 34.337 47.0767 34.7991 47.25C35.2612 47.4233 35.7233 47.4811 36.1854 47.4522C36.6475 47.4233 37.0952 47.2933 37.514 47.0912C37.9327 46.8746 38.3226 46.5857 38.6692 46.1958C39.0158 45.8204 39.2613 45.416 39.449 44.9684C39.6223 44.5207 39.7089 44.0731 39.6801 43.611C39.6656 43.1489 39.5501 42.7012 39.3335 42.2535C39.1169 41.8059 38.8136 41.4015 38.3804 41.0116C37.9616 40.6362 37.514 40.3618 37.0519 40.1885C36.5898 40.0152 36.1277 39.9575 35.6656 39.9719C35.2035 39.9864 34.7702 40.1163 34.337 40.3329C33.9038 40.5495 33.5283 40.8384 33.1818 41.2138C32.8352 41.6037 32.5753 42.0081 32.402 42.4557C32.2287 42.9034 32.1565 43.351 32.1709 43.8131C32.1709 44.2752 32.2864 44.7373 32.5031 45.1706C32.7197 45.6038 33.0229 46.0226 33.4561 46.4125L33.4706 46.4269Z" fill="white"/>
<path d="M40.8787 30.1089L43.7812 33.5746L48.4311 29.6757L45.5286 26.2099L48.0557 24.1016L55.998 33.5891L53.4709 35.6974L50.3229 31.9428L45.673 35.8418L48.821 39.5964L46.2939 41.7047L38.3516 32.2172L40.8787 30.1089Z" fill="white"/>
<path d="M57.4289 16.8229L59.1041 15.8265L60.0283 17.0684L60.7792 15.7832L62.5121 16.7507L61.8478 18.1659L63.3785 18.1948L63.4363 20.202L61.9489 20.2309L62.5987 21.7039L60.9236 22.7003L59.9849 21.4006L59.2051 22.7292L57.4578 21.7183L58.2087 20.3609L56.6058 20.3031L56.5625 18.3248L58.0788 18.2526L57.4434 16.8374L57.4289 16.8229Z" fill="white"/>
</svg>
