<svg width="100" height="100" viewBox="0 0 100 100" fill="none" xmlns="http://www.w3.org/2000/svg">
<g clip-path="url(#clip0_4594_593)">
<rect width="100" height="100" rx="20" fill="#192663"/>
<path fill-rule="evenodd" clip-rule="evenodd" d="M89.1113 18.1093C88.9557 18.1001 88.7904 18.1001 88.6434 18.0908H13.3741C13.2823 18.0908 13.1905 18.0908 13.0896 18.0908C9.34587 18.2389 8.44663 21.4497 9.34586 23.9573L13.0896 34.4411L25.0916 68.0574C29.1106 79.3281 38.0663 88.4887 50.1875 88.4887C54.3993 88.4887 58.3814 87.4243 61.9049 85.5555C70.2734 81.1045 76.0081 72.0642 76.0081 61.6915C76.0081 54.9737 73.751 48.7834 69.6127 43.8608C67.4106 41.3439 64.7953 39.2897 61.9049 37.7815C58.3447 35.9216 54.3533 34.9038 50.1875 34.9038C44.5902 34.9038 39.5986 36.6803 35.3502 39.8356C33.4599 41.2514 33.8086 43.1483 33.8178 43.4721L37.3964 53.4748C37.6992 54.3631 39.0113 55.4179 40.2042 53.7893C42.6633 50.4212 45.8107 48.5799 50.1875 48.5799C55.4911 48.5799 60.0514 52.0035 61.9049 56.8336C62.483 58.3327 62.8044 59.9704 62.8044 61.6915C62.8044 63.4126 62.483 65.0318 61.9049 66.54C60.0605 71.3702 55.4911 74.7846 50.1875 74.7846C43.4433 74.7846 39.6904 68.8074 37.2312 62.404L26.1468 33.4418C25.7247 32.3129 26.0734 31.8595 26.8717 31.8595H74.0356C74.5494 31.8595 74.7693 32.1833 74.5678 32.7848L71.6499 41.1126C71.3101 42.0286 71.5856 43.1575 72.9254 43.1575H84.4684C85.3403 43.1575 85.698 43.0095 86.1108 41.8158L89.0929 33.6453L92.5705 24.0406L92.5981 23.9666C93.4792 21.5145 92.644 18.3869 89.0929 18.1093" fill="white"/>
</g>
<defs>
<clipPath id="clip0_4594_593">
<rect width="100" height="100" fill="white"/>
</clipPath>
</defs>
</svg>
